<svg width="62" height="16" viewBox="0 0 62 16" fill="none" xmlns="http://www.w3.org/2000/svg">
<path fill-rule="evenodd" clip-rule="evenodd" d="M0 2.34605C0 1.05036 1.05036 0 2.34605 0H11.6776V4.22738H4.47368C7.37121 5.88261 7.44211 10.0353 4.60277 11.7884L4.49013 11.858H7.31992V15.8416H7.92085V15.8417H2.35027C1.05225 15.8417 0 14.7894 0 13.4914C0 12.9855 0.163263 12.4931 0.465519 12.0873L3.58552 7.89927L0.470756 3.75574C0.165212 3.34927 0 2.85454 0 2.34605Z" fill="url(#paint0_linear_122_16)"/>
<path d="M19.1839 15.8416V11.3901C19.1839 10.7459 19.0625 10.2442 18.8196 9.88512C18.5872 9.52604 18.2387 9.3465 17.774 9.3465C17.2143 9.3465 16.7654 9.563 16.4275 9.99601C16.0895 10.429 15.91 11.0363 15.8889 11.8178V15.8416H14.1463V11.3901C14.1463 10.7459 14.0248 10.2442 13.7819 9.88512C13.5496 9.52604 13.2011 9.3465 12.7364 9.3465C12.1555 9.3465 11.6908 9.57356 11.3423 10.0277C11.0043 10.4818 10.8354 11.1208 10.8354 11.9445V15.8416H9.09277V7.92075H10.8354C10.8354 9.77555 11.5064 7.76233 13.0849 7.76233C14.2783 7.76233 15.0968 8.28511 15.5403 9.33066C15.7621 8.83429 16.1001 8.4488 16.5542 8.17421C17.0189 7.89962 17.5258 7.76233 18.075 7.76233C18.9622 7.76233 19.6592 8.06332 20.1661 8.66531C20.6731 9.26729 20.9265 10.0805 20.9265 11.1049V15.8416H19.1839Z" fill="#11024D"/>
<path d="M26.498 16C25.3151 16 24.3435 15.6145 23.5831 14.8436C22.8227 14.062 22.4425 13.0746 22.4425 11.8812C22.4425 10.6878 22.8174 9.70558 23.5673 8.93462C24.3171 8.15309 25.2993 7.76233 26.5138 7.76233C27.7389 7.76233 28.7264 8.19006 29.4762 9.04551C30.2261 9.8904 30.5587 10.9782 30.4742 12.3089H24.1692C24.1904 12.9214 24.4227 13.4337 24.8663 13.8455C25.3099 14.2574 25.8749 14.4634 26.5613 14.4634C27.533 14.4634 28.1983 14.0937 28.5574 13.3545H30.3792C30.1363 14.1254 29.6716 14.7591 28.9851 15.2555C28.2987 15.7518 27.4696 16 26.498 16ZM26.4663 9.21977C25.896 9.21977 25.4049 9.38346 24.993 9.71086C24.5917 10.0277 24.3329 10.4818 24.2168 11.0732H28.6049C28.4782 10.4607 28.2194 10.0013 27.8287 9.69502C27.4379 9.37818 26.9838 9.21977 26.4663 9.21977Z" fill="#11024D"/>
<path d="M32.1053 15.8416V7.92075H33.8479V8.99798C34.3443 8.17421 35.1469 7.76233 36.2558 7.76233C37.1747 7.76233 37.9087 8.06332 38.4578 8.66531C39.007 9.26729 39.2816 10.0699 39.2816 11.0732V15.8416H37.539V11.3584C37.539 10.7247 37.3912 10.2336 37.0955 9.88512C36.7997 9.52604 36.3984 9.3465 35.8915 9.3465C35.2895 9.3465 34.7984 9.57356 34.4182 10.0277C34.038 10.4818 33.8479 11.1208 33.8479 11.9445V15.8416H32.1053Z" fill="#11024D"/>
<path d="M44.6977 15.9208C43.8951 15.9208 43.2403 15.699 42.7334 15.2555C42.237 14.8013 41.9888 14.1465 41.9888 13.2911V9.47323H40.3413V7.92075H41.9888V5.71875H43.7314V7.92075H45.9968V9.47323H43.7314V13.0059C43.7314 13.4917 43.837 13.8403 44.0482 14.0515C44.2595 14.2521 44.5974 14.3525 45.0621 14.3525C45.4423 14.3525 45.7539 14.2997 45.9968 14.1941V15.7465C45.6166 15.8627 45.1836 15.9208 44.6977 15.9208Z" fill="#11024D"/>
<path d="M53.9094 14.8119C53.1174 15.604 52.1352 16 50.9629 16C49.7906 16 48.8031 15.604 48.0005 14.8119C47.2084 14.0092 46.8124 13.0323 46.8124 11.8812C46.8124 10.73 47.2084 9.75838 48.0005 8.9663C48.8031 8.16365 49.7906 7.76233 50.9629 7.76233C52.1352 7.76233 53.1174 8.16365 53.9094 8.9663C54.7121 9.75838 55.1134 10.73 55.1134 11.8812C55.1134 13.0323 54.7121 14.0092 53.9094 14.8119ZM50.9629 14.3842C51.6494 14.3842 52.2144 14.1465 52.6579 13.6713C53.1121 13.1855 53.3391 12.5888 53.3391 11.8812C53.3391 11.1736 53.1121 10.5822 52.6579 10.1069C52.2144 9.62109 51.6494 9.37818 50.9629 9.37818C50.2659 9.37818 49.6903 9.62109 49.2361 10.1069C48.7926 10.5822 48.5708 11.1736 48.5708 11.8812C48.5708 12.5888 48.7926 13.1855 49.2361 13.6713C49.6903 14.1465 50.2659 14.3842 50.9629 14.3842Z" fill="#11024D"/>
<path d="M56.7076 15.8416V7.92075H58.4502V9.33066C58.5981 8.88709 58.8674 8.52801 59.2581 8.25342C59.6594 7.97883 60.0872 7.84154 60.5413 7.84154C60.8159 7.84154 61.043 7.86266 61.2225 7.9049V9.69502C60.969 9.59997 60.6786 9.55244 60.3512 9.55244C59.8231 9.55244 59.3743 9.76895 59.0047 10.202C58.635 10.6244 58.4502 11.2158 58.4502 11.9762V15.8416H56.7076Z" fill="#11024D"/>
<defs>
<linearGradient id="paint0_linear_122_16" x1="16" y1="-2.5" x2="5.83881" y2="15.8417" gradientUnits="userSpaceOnUse">
<stop stop-color="#601FEB" stop-opacity="0"/>
<stop offset="1" stop-color="#601FEB"/>
</linearGradient>
</defs>
</svg>
